<?xml version="1.0" standalone="no"?>
<!DOCTYPE svg PUBLIC "-//W3C//DTD SVG 20010904//EN"
 "http://www.w3.org/TR/2001/REC-SVG-20010904/DTD/svg10.dtd">
<svg version="1.0" xmlns="http://www.w3.org/2000/svg"
 width="512.000000pt" height="512.000000pt" viewBox="0 0 512.000000 512.000000"
 preserveAspectRatio="xMidYMid meet">

<g transform="translate(0.000000,512.000000) scale(0.100000,-0.100000)"
fill="#000000" stroke="none">
<path d="M2620 5106 c-130 -36 -236 -133 -281 -256 l-21 -59 -57 -6 c-190 -20
-247 -29 -341 -51 -199 -46 -365 -108 -530 -196 -637 -341 -1057 -967 -1131
-1685 -14 -144 -7 -419 16 -553 45 -267 137 -523 267 -740 l45 -76 -75 -17
c-124 -28 -215 -79 -313 -177 -70 -69 -94 -101 -128 -170 -93 -191 -93 -394 1
-589 77 -161 255 -305 429 -346 82 -19 238 -19 314 0 149 38 305 145 386 265
l34 49 1192 1 1192 0 25 -50 c114 -228 350 -398 606 -439 333 -54 684 117 839
409 28 53 31 66 31 154 0 70 -3 96 -12 95 -7 0 -182 -19 -389 -42 l-376 -43
-60 121 -61 120 60 120 c33 66 61 121 62 122 1 1 652 -70 734 -81 l42 -6 0
100 c0 99 0 100 -42 171 -106 178 -282 313 -480 370 -44 12 -117 23 -184 26
l-111 6 47 106 c92 206 157 450 180 670 5 57 10 111 10 121 0 11 10 20 27 25
108 27 233 138 274 242 42 110 36 347 -16 598 -61 292 -196 591 -379 839 -307
415 -784 719 -1288 820 -215 44 -446 57 -538 32z m342 -170 c64 -8 156 -24
205 -36 81 -19 272 -78 282 -87 3 -2 -24 -33 -59 -68 l-64 -65 54 -55 c30 -30
59 -55 65 -55 6 0 46 36 90 80 44 44 84 80 90 80 5 0 43 -19 84 -41 l74 -41
-107 -107 -106 -106 60 -60 60 -60 113 113 c62 61 116 112 121 112 5 0 29 -17
54 -37 24 -21 54 -46 66 -55 21 -17 20 -18 -102 -140 l-122 -123 60 -60 60
-60 123 122 122 122 57 -67 57 -67 -117 -117 -117 -118 60 -60 60 -60 106 106
107 106 46 -83 47 -83 -88 -88 -87 -88 59 -60 59 -60 67 66 66 66 37 -112 c56
-173 103 -436 94 -533 l-3 -37 -965 965 -965 965 40 0 c23 0 93 -6 157 -14z
m1649 -2147 c-21 -19 -56 -40 -78 -47 l-38 -12 -1006 1007 c-989 988 -1007
1006 -998 1036 9 34 32 71 62 105 l21 23 1039 -1038 1038 -1038 -40 -36z
m-1391 976 l854 -854 -33 -35 c-56 -58 -171 -111 -303 -140 -26 -6 -28 -4 -28
28 0 59 -36 226 -70 321 -65 184 -163 338 -310 486 -205 207 -451 334 -726
375 -60 9 -114 18 -120 19 -6 2 -14 27 -17 57 -23 196 -157 400 -345 526 -29
19 -49 39 -45 43 9 9 151 26 233 28 l55 1 855 -855z m-1295 703 c187 -94 315
-241 360 -414 24 -93 27 -89 -74 -102 -222 -30 -432 -119 -630 -268 -32 -24
-61 -44 -65 -44 -3 0 -28 16 -54 35 -71 50 -188 103 -267 120 -86 18 -269 19
-352 2 -75 -16 -76 -20 35 114 219 261 520 474 826 584 101 36 92 37 221 -27z
m713 -697 c350 -77 641 -308 797 -633 103 -215 136 -435 100 -671 -36 -241
-148 -461 -325 -638 -357 -358 -898 -442 -1347 -209 -557 290 -781 973 -503
1533 178 357 526 598 925 641 77 8 267 -4 353 -23z m-1433 -154 c64 -21 180
-91 179 -109 -1 -7 -24 -43 -52 -80 -131 -174 -229 -419 -250 -627 l-7 -75
-68 -12 c-215 -40 -382 -150 -517 -342 l-45 -64 -9 44 c-5 24 -10 156 -10 293
0 236 1 257 27 380 32 149 79 297 138 431 l41 93 66 26 c125 50 206 65 337 61
75 -2 139 -9 170 -19z m3082 -919 l83 -83 0 -57 c0 -202 -75 -516 -178 -742
-41 -89 -50 -95 -210 -142 -202 -58 -393 -35 -542 67 l-47 32 61 81 c68 90
150 243 190 354 30 85 66 253 66 311 0 39 1 40 38 46 155 25 273 75 379 160
37 30 70 55 73 55 2 0 42 -37 87 -82z m-3207 -184 c0 -54 37 -224 66 -306 40
-113 122 -264 192 -358 42 -55 61 -89 56 -96 -62 -87 -94 -143 -120 -214 -38
-100 -59 -228 -51 -311 l5 -58 -46 61 c-25 33 -71 80 -101 105 -60 47 -195
117 -249 128 -29 6 -43 21 -98 105 -70 106 -158 282 -199 397 l-26 73 30 70
c41 97 131 230 197 289 67 59 156 108 239 132 94 27 105 26 105 -17z m2238
-899 c64 -46 182 -100 262 -122 41 -10 105 -17 172 -17 l106 -1 -67 -70 c-71
-74 -114 -132 -150 -202 l-21 -43 -549 0 -548 0 -17 58 c-9 32 -16 68 -16 80
0 24 1 24 125 42 200 29 435 133 595 264 30 24 56 45 57 45 2 1 25 -15 51 -34z
m-1723 -25 c176 -134 382 -221 608 -254 54 -8 101 -17 106 -20 4 -3 11 -27 15
-53 3 -26 9 -60 12 -75 l6 -28 -470 0 -469 0 -7 58 c-8 72 7 182 35 259 21 56
83 163 94 163 3 0 35 -22 70 -50z m2940 -126 c133 -32 271 -121 350 -226 25
-33 44 -62 42 -64 -2 -2 -144 12 -316 31 -172 19 -325 35 -340 35 -24 0 -34
-15 -130 -208 l-103 -207 103 -208 c87 -173 107 -207 125 -207 12 0 162 16
334 35 172 19 316 35 322 35 19 0 -30 -64 -103 -135 -134 -128 -278 -181 -474
-172 -127 5 -217 33 -321 99 -117 73 -232 221 -274 351 l-12 37 -1303 0 -1304
0 -33 -62 c-97 -183 -314 -293 -510 -260 -248 42 -418 240 -418 487 0 439 524
659 835 350 33 -33 75 -88 93 -122 l33 -63 1302 0 1302 0 28 71 c121 313 445
482 772 403z"/>
<path d="M2200 3615 c-366 -74 -673 -366 -764 -726 -32 -128 -40 -235 -26
-355 49 -413 336 -744 739 -852 83 -22 116 -25 246 -25 131 0 163 3 249 26
374 100 645 392 727 782 20 96 16 294 -10 398 -46 193 -140 356 -283 493 -140
134 -312 224 -496 260 -91 17 -294 17 -382 -1z m335 -160 c416 -73 709 -444
682 -863 -15 -217 -99 -396 -259 -548 -169 -160 -358 -230 -598 -221 -225 8
-385 79 -550 246 -77 77 -105 113 -142 186 -60 116 -88 215 -95 337 -22 359
185 684 520 818 141 56 289 71 442 45z"/>
<path d="M1980 3055 l-54 -55 92 -93 92 -92 -21 -55 c-29 -74 -28 -171 0 -236
l22 -48 -93 -93 -93 -93 58 -57 57 -58 93 93 93 93 50 -23 c67 -31 169 -31
238 0 l50 23 93 -93 93 -93 57 58 58 57 -93 93 -93 93 21 47 c28 64 29 164 1
237 l-21 55 92 92 93 93 -58 57 -57 58 -93 -93 -92 -92 -57 20 c-77 27 -165
26 -229 -2 l-51 -21 -91 91 c-51 51 -95 92 -98 92 -2 0 -29 -25 -59 -55z m491
-271 c111 -56 113 -220 4 -281 -157 -88 -322 112 -202 243 55 60 129 74 198
38z"/>
<path d="M587 1150 c-182 -46 -295 -236 -244 -411 56 -191 253 -289 440 -219
69 26 142 94 177 165 35 70 36 208 2 276 -70 142 -233 224 -375 189z m136
-174 c45 -19 83 -64 96 -111 39 -147 -144 -265 -259 -168 -42 35 -60 73 -60
128 0 119 115 197 223 151z"/>
</g>
</svg>
